<?xml version="1.0" encoding="UTF-8"?>
<svg xmlns="http://www.w3.org/2000/svg" viewBox="0 0 159 97">
  <path d="M 89 67 L 89 68 L 88 69 L 88 70 L 87 71 L 87 72 L 81 78 L 80 78 L 78 80 L 77 80 L 76 81 L 75 81 L 74 82 L 72 82 L 71 83 L 67 83 L 66 84 L 4 84 L 4 85 L 2 87 L 2 88 L 0 90 L 0 91 L 107 91 L 107 90 L 108 89 L 108 88 L 110 86 L 110 85 L 111 84 L 111 83 L 112 82 L 112 81 L 113 80 L 113 79 L 114 78 L 114 77 L 116 75 L 116 74 L 117 73 L 117 72 L 118 71 L 118 70 L 119 69 L 119 68 L 120 67 Z" fill="#002776"/>
  <path d="M 104 33 L 101 36 L 100 36 L 98 38 L 97 38 L 96 39 L 94 39 L 93 40 L 89 40 L 88 41 L 28 41 L 28 42 L 27 43 L 27 44 L 26 45 L 26 46 L 24 48 L 84 48 L 85 49 L 86 49 L 91 54 L 91 55 L 92 56 L 116 56 L 117 57 L 125 57 L 127 55 L 127 54 L 129 52 L 129 51 L 130 50 L 130 49 L 132 47 L 132 46 L 133 45 L 133 44 L 134 43 L 134 42 L 135 41 L 135 40 L 137 38 L 137 37 L 138 36 L 138 35 L 139 34 L 139 33 Z" fill="#002776"/>
  <path d="M 52 0 L 51 1 L 51 2 L 50 3 L 50 4 L 48 6 L 48 7 L 103 7 L 104 8 L 105 8 L 106 9 L 107 9 L 111 13 L 111 14 L 112 15 L 112 21 L 111 22 L 111 23 L 146 23 L 146 22 L 147 21 L 147 20 L 149 18 L 149 16 L 151 14 L 151 13 L 152 12 L 152 11 L 154 9 L 154 8 L 155 7 L 155 6 L 156 5 L 156 4 L 158 2 L 158 0 Z" fill="#002776"/>
</svg>
